<svg width="21" height="21" viewBox="0 0 21 21" fill="none" xmlns="http://www.w3.org/2000/svg">
<path fill-rule="evenodd" clip-rule="evenodd" d="M9.66699 2.05078C9.48133 2.05088 9.29936 2.10266 9.14147 2.20033C8.98357 2.298 8.85598 2.4377 8.77299 2.60378L8.04899 4.05078H4.66699C4.40178 4.05078 4.14742 4.15614 3.95989 4.34367C3.77235 4.53121 3.66699 4.78556 3.66699 5.05078C3.66699 5.316 3.77235 5.57035 3.95989 5.75789C4.14742 5.94542 4.40178 6.05078 4.66699 6.05078V16.0508C4.66699 16.5812 4.87771 17.0899 5.25278 17.465C5.62785 17.8401 6.13656 18.0508 6.66699 18.0508H14.667C15.1974 18.0508 15.7061 17.8401 16.0812 17.465C16.4563 17.0899 16.667 16.5812 16.667 16.0508V6.05078C16.9322 6.05078 17.1866 5.94542 17.3741 5.75789C17.5616 5.57035 17.667 5.316 17.667 5.05078C17.667 4.78556 17.5616 4.53121 17.3741 4.34367C17.1866 4.15614 16.9322 4.05078 16.667 4.05078H13.285L12.561 2.60378C12.478 2.4377 12.3504 2.298 12.1925 2.20033C12.0346 2.10266 11.8527 2.05088 11.667 2.05078H9.66699ZM7.66699 8.05078C7.66699 7.78556 7.77235 7.53121 7.95989 7.34367C8.14742 7.15614 8.40178 7.05078 8.66699 7.05078C8.93221 7.05078 9.18656 7.15614 9.3741 7.34367C9.56164 7.53121 9.66699 7.78556 9.66699 8.05078V14.0508C9.66699 14.316 9.56164 14.5704 9.3741 14.7579C9.18656 14.9454 8.93221 15.0508 8.66699 15.0508C8.40178 15.0508 8.14742 14.9454 7.95989 14.7579C7.77235 14.5704 7.66699 14.316 7.66699 14.0508V8.05078ZM12.667 7.05078C12.4018 7.05078 12.1474 7.15614 11.9599 7.34367C11.7723 7.53121 11.667 7.78556 11.667 8.05078V14.0508C11.667 14.316 11.7723 14.5704 11.9599 14.7579C12.1474 14.9454 12.4018 15.0508 12.667 15.0508C12.9322 15.0508 13.1866 14.9454 13.3741 14.7579C13.5616 14.5704 13.667 14.316 13.667 14.0508V8.05078C13.667 7.78556 13.5616 7.53121 13.3741 7.34367C13.1866 7.15614 12.9322 7.05078 12.667 7.05078Z" fill="#F00F14"/>
</svg>
